<svg width="353" height="150" viewBox="0 0 353 150" fill="none" xmlns="http://www.w3.org/2000/svg">
<g filter="url(#filter0_d)">
<path d="M4 43.8521C4 33.3587 12.5066 24.8521 23 24.8521H330C340.493 24.8521 349 33.3586 349 43.8521V105.26C349 115.754 340.493 124.26 330 124.26H23C12.5066 124.26 4 115.754 4 105.26V43.8521Z" fill="white"/>
</g>
<path d="M67.048 85.5741C64.48 85.5741 62.152 85.0221 60.064 83.9181C58 82.7901 56.368 81.2421 55.168 79.2741C53.992 77.2821 53.404 75.0381 53.404 72.5421C53.404 70.0461 53.992 67.8141 55.168 65.8461C56.368 63.8541 58 62.3061 60.064 61.2021C62.152 60.0741 64.492 59.5101 67.084 59.5101C69.268 59.5101 71.236 59.8941 72.988 60.6621C74.764 61.4301 76.252 62.5341 77.452 63.9741L73.708 67.4301C72.004 65.4621 69.892 64.4781 67.372 64.4781C65.812 64.4781 64.42 64.8261 63.196 65.5221C61.972 66.1941 61.012 67.1421 60.316 68.3661C59.644 69.5901 59.308 70.9821 59.308 72.5421C59.308 74.1021 59.644 75.4941 60.316 76.7181C61.012 77.9421 61.972 78.9021 63.196 79.5981C64.42 80.2701 65.812 80.6061 67.372 80.6061C69.892 80.6061 72.004 79.6101 73.708 77.6181L77.452 81.0741C76.252 82.5381 74.764 83.6541 72.988 84.4221C71.212 85.1901 69.232 85.5741 67.048 85.5741ZM105.762 59.9421V85.1421H99.9303V74.8101H88.4823V85.1421H82.6503V59.9421H88.4823V69.8781H99.9303V59.9421H105.762ZM132.497 80.4621V85.1421H112.985V59.9421H132.029V64.6221H118.781V70.0941H130.481V74.6301H118.781V80.4621H132.497ZM150.387 85.5741C147.819 85.5741 145.491 85.0221 143.403 83.9181C141.339 82.7901 139.707 81.2421 138.507 79.2741C137.331 77.2821 136.743 75.0381 136.743 72.5421C136.743 70.0461 137.331 67.8141 138.507 65.8461C139.707 63.8541 141.339 62.3061 143.403 61.2021C145.491 60.0741 147.831 59.5101 150.423 59.5101C152.607 59.5101 154.575 59.8941 156.327 60.6621C158.103 61.4301 159.591 62.5341 160.791 63.9741L157.047 67.4301C155.343 65.4621 153.231 64.4781 150.711 64.4781C149.151 64.4781 147.759 64.8261 146.535 65.5221C145.311 66.1941 144.351 67.1421 143.655 68.3661C142.983 69.5901 142.647 70.9821 142.647 72.5421C142.647 74.1021 142.983 75.4941 143.655 76.7181C144.351 77.9421 145.311 78.9021 146.535 79.5981C147.759 80.2701 149.151 80.6061 150.711 80.6061C153.231 80.6061 155.343 79.6101 157.047 77.6181L160.791 81.0741C159.591 82.5381 158.103 83.6541 156.327 84.4221C154.551 85.1901 152.571 85.5741 150.387 85.5741ZM175.169 75.2421L171.785 78.7701V85.1421H165.989V59.9421H171.785V71.7141L182.945 59.9421H189.425L178.985 71.1741L190.037 85.1421H183.233L175.169 75.2421ZM228.465 59.9421V85.1421H223.677L211.113 69.8421V85.1421H205.353V59.9421H210.177L222.705 75.2421V59.9421H228.465ZM247.891 85.5741C245.275 85.5741 242.911 85.0101 240.799 83.8821C238.711 82.7541 237.067 81.2061 235.867 79.2381C234.691 77.2461 234.103 75.0141 234.103 72.5421C234.103 70.0701 234.691 67.8501 235.867 65.8821C237.067 63.8901 238.711 62.3301 240.799 61.2021C242.911 60.0741 245.275 59.5101 247.891 59.5101C250.507 59.5101 252.859 60.0741 254.947 61.2021C257.035 62.3301 258.679 63.8901 259.879 65.8821C261.079 67.8501 261.679 70.0701 261.679 72.5421C261.679 75.0141 261.079 77.2461 259.879 79.2381C258.679 81.2061 257.035 82.7541 254.947 83.8821C252.859 85.0101 250.507 85.5741 247.891 85.5741ZM247.891 80.6061C249.379 80.6061 250.723 80.2701 251.923 79.5981C253.123 78.9021 254.059 77.9421 254.731 76.7181C255.427 75.4941 255.775 74.1021 255.775 72.5421C255.775 70.9821 255.427 69.5901 254.731 68.3661C254.059 67.1421 253.123 66.1941 251.923 65.5221C250.723 64.8261 249.379 64.4781 247.891 64.4781C246.403 64.4781 245.059 64.8261 243.859 65.5221C242.659 66.1941 241.711 67.1421 241.015 68.3661C240.343 69.5901 240.007 70.9821 240.007 72.5421C240.007 74.1021 240.343 75.4941 241.015 76.7181C241.711 77.9421 242.659 78.9021 243.859 79.5981C245.059 80.2701 246.403 80.6061 247.891 80.6061ZM304.566 59.9421L296.322 85.1421H290.058L284.514 68.0781L278.79 85.1421H272.562L264.282 59.9421H270.33L276.018 77.6541L281.958 59.9421H287.358L293.118 77.7981L298.986 59.9421H304.566Z" fill="black"/>
<defs>
<filter id="filter0_d" x="0" y="24.8521" width="353" height="107.408" filterUnits="userSpaceOnUse" color-interpolation-filters="sRGB">
<feFlood flood-opacity="0" result="BackgroundImageFix"/>
<feColorMatrix in="SourceAlpha" type="matrix" values="0 0 0 0 0 0 0 0 0 0 0 0 0 0 0 0 0 0 127 0"/>
<feOffset dy="4"/>
<feGaussianBlur stdDeviation="2"/>
<feColorMatrix type="matrix" values="0 0 0 0 0 0 0 0 0 0 0 0 0 0 0 0 0 0 0.25 0"/>
<feBlend mode="normal" in2="BackgroundImageFix" result="effect1_dropShadow"/>
<feBlend mode="normal" in="SourceGraphic" in2="effect1_dropShadow" result="shape"/>
</filter>
</defs>
</svg>
