<svg width="427" height="380" viewBox="0 0 427 380" fill="none" xmlns="http://www.w3.org/2000/svg">
<g clip-path="url(#clip0)">
<path d="M213.5 380C331.413 380 427 294.934 427 190C427 85.0659 331.413 0 213.5 0C95.5872 0 0 85.0659 0 190C0 294.934 95.5872 380 213.5 380Z" fill="#93E79B"/>
<path d="M427 190C427 187.059 426.914 184.137 426.766 181.23L397.347 156.734L396.089 180.876L345.86 134.148L328.21 139.415L261.132 78.0203L243.691 118.35L81.2676 136.572L130.863 181.451L132.245 183.878L169.607 216.51L165.046 218.619L204.136 253.406L319.738 354.844C383.835 322.058 427 260.515 427 190Z" fill="#93E79B"/>
<path d="M232.64 237.157V216.508H190.794V237.157C190.794 238.805 189.293 240.141 187.441 240.141H158.605V311.399H264.831V240.141H235.995C234.141 240.141 232.64 238.805 232.64 237.157Z" fill="#FED8B2"/>
<path d="M264.831 240.141H235.995C234.144 240.141 232.642 238.805 232.642 237.157V216.508H213.5V311.399H264.829V240.141H264.831Z" fill="#EABE96"/>
<path d="M143.943 188.122C153.179 188.122 160.666 181.459 160.666 173.239C160.666 165.02 153.179 158.357 143.943 158.357C134.707 158.357 127.22 165.02 127.22 173.239C127.22 181.459 134.707 188.122 143.943 188.122Z" fill="#FED8B2"/>
<path d="M279.491 188.122C288.727 188.122 296.214 181.459 296.214 173.239C296.214 165.02 288.727 158.357 279.491 158.357C270.255 158.357 262.768 165.02 262.768 173.239C262.768 181.459 270.255 188.122 279.491 188.122Z" fill="#EABE96"/>
<path d="M213.602 235.219H209.834C174.977 235.219 146.72 210.072 146.72 179.051V127.769C146.72 96.7486 174.977 71.6018 209.834 71.6018H213.602C248.459 71.6018 276.716 96.7486 276.716 127.769V179.051C276.716 210.072 248.458 235.219 213.602 235.219Z" fill="#F4E3C3"/>
<path d="M213.602 71.6025H213.501V235.219H213.602C248.459 235.219 276.716 210.072 276.716 179.051V127.769C276.714 96.7493 248.458 71.6025 213.602 71.6025Z" fill="#FED8B2"/>
<path d="M181.08 172.421C184.67 172.421 187.58 169.831 187.58 166.637C187.58 163.442 184.67 160.852 181.08 160.852C177.49 160.852 174.58 163.442 174.58 166.637C174.58 169.831 177.49 172.421 181.08 172.421Z" fill="#59595B"/>
<path d="M242.355 172.421C245.945 172.421 248.855 169.831 248.855 166.637C248.855 163.442 245.945 160.852 242.355 160.852C238.765 160.852 235.855 163.442 235.855 166.637C235.855 169.831 238.765 172.421 242.355 172.421Z" fill="#272525"/>
<path d="M211.717 214.04C200.005 214.04 190.48 205.562 190.48 195.14C190.48 193.373 192.089 191.942 194.075 191.942C196.061 191.942 197.669 193.373 197.669 195.14C197.669 202.034 203.973 207.642 211.717 207.642C219.462 207.642 225.765 202.032 225.765 195.14C225.765 193.373 227.373 191.942 229.359 191.942C231.345 191.942 232.954 193.373 232.954 195.14C232.954 205.562 223.428 214.04 211.717 214.04Z" fill="#FD8469"/>
<path d="M232.953 195.141C232.953 193.374 231.345 191.942 229.359 191.942C227.373 191.942 225.764 193.374 225.764 195.141C225.764 201.497 220.404 206.748 213.499 207.531V213.961C224.378 213.15 232.953 205.026 232.953 195.141Z" fill="#FC6F58"/>
<path d="M269.391 240.141H247.126C247.126 257.544 231.272 271.651 211.719 271.651C192.165 271.651 176.311 257.542 176.311 240.141H154.047C127.232 240.141 105.494 259.486 105.494 283.349V353.913C137.179 370.486 174.089 380 213.5 380C251.443 380 287.067 371.181 317.944 355.736V283.349C317.942 259.486 296.206 240.141 269.391 240.141Z" fill="#E6F3FF"/>
<path d="M317.942 283.349C317.942 259.486 296.205 240.141 269.389 240.141H247.125C247.125 257.011 232.226 270.785 213.5 271.612V380C251.443 380 287.065 371.181 317.942 355.736V283.349Z" fill="#CFDBE6"/>
<path d="M284.14 125.275C278.311 93.7042 253.061 61.4138 233.867 61.4138C226.417 61.4138 219.449 64.7203 213.499 70.4596C207.549 64.7203 200.582 61.4138 193.131 61.4138C173.936 61.4138 148.688 93.7034 142.858 125.275C105.409 127.369 80.5103 131.077 80.5103 135.303C80.5103 141.839 140.052 147.138 213.498 147.138C286.945 147.138 346.486 141.839 346.486 135.303C346.488 131.077 321.59 127.369 284.14 125.275Z" fill="#804000"/>
<path d="M346.488 135.303C346.488 131.077 321.589 127.369 284.14 125.275C278.31 93.7042 253.061 61.4138 233.867 61.4138C226.417 61.4138 219.449 64.7203 213.499 70.4596V147.138C286.946 147.138 346.488 141.839 346.488 135.303Z" fill="#6B3403"/>
<path d="M166.055 240.141H154.043C150.005 240.141 146.084 240.587 142.333 241.413V369.166C164.593 376.174 188.541 380 213.5 380C238.46 380 262.405 376.161 284.666 369.153V242.335C279.862 240.919 274.729 240.14 269.391 240.14H260.944V316.667H166.055V240.141Z" fill="#935635"/>
<path d="M284.666 242.336C279.862 240.92 274.729 240.141 269.391 240.141H260.945V316.667H213.5V380C238.46 380 262.405 376.161 284.666 369.153V242.336Z" fill="#804000"/>
<path d="M397.347 156.734L391.417 205.299C391.417 213.455 383.988 220.067 374.823 220.067H361L355.834 157.373L350.668 220.067H336.845C327.681 220.067 320.251 213.456 320.251 205.299L314.321 156.734L308.39 224.225C308.39 233.589 316.918 241.178 327.44 241.178H348.928L347.928 253.333C347.903 253.66 347.9 254.031 347.928 254.365C348.248 258.252 352.048 261.171 356.414 260.887C360.781 260.603 364.061 257.22 363.743 253.335L362.74 241.18H384.229C394.75 241.18 403.278 233.59 403.278 224.227L397.347 156.734Z" fill="#F4E3C3"/>
<path d="M397.347 156.734L391.416 205.299C391.416 213.455 383.988 220.067 374.822 220.067H360.999L355.894 158.106V260.897C356.066 260.895 356.239 260.898 356.412 260.886C360.78 260.601 364.059 257.219 363.741 253.334L362.738 241.179H384.227C394.748 241.179 403.276 233.589 403.276 224.226L397.347 156.734Z" fill="#FED8B2"/>
<path d="M374.523 314.757V261.01C374.523 257.124 370.982 253.974 366.616 253.974H345.05C340.683 253.974 337.143 257.125 337.143 261.01V344.914C350.905 336.199 363.452 326.064 374.523 314.757Z" fill="#FFD15D"/>
<path d="M366.616 253.973H355.894V331.551C362.481 326.296 368.711 320.693 374.523 314.757V261.01C374.523 257.124 370.982 253.973 366.616 253.973Z" fill="#F9B54C"/>
</g>
<defs>
<clipPath id="clip0">
<rect width="427" height="380" fill="white"/>
</clipPath>
</defs>
</svg>
