<svg width="1279" height="382" viewBox="0 0 1279 382" fill="none" xmlns="http://www.w3.org/2000/svg">
<path d="M24.6655 223V251H18.1855V228.2H12.5855V223H24.6655ZM34.6095 251.32C33.5162 251.32 32.5962 250.947 31.8495 250.2C31.1029 249.453 30.7295 248.52 30.7295 247.4C30.7295 246.253 31.1029 245.333 31.8495 244.64C32.5962 243.92 33.5162 243.56 34.6095 243.56C35.7029 243.56 36.6229 243.92 37.3695 244.64C38.1162 245.333 38.4895 246.253 38.4895 247.4C38.4895 248.52 38.1162 249.453 37.3695 250.2C36.6229 250.947 35.7029 251.32 34.6095 251.32ZM57.177 251.48C54.3237 251.48 51.737 250.867 49.417 249.64C47.1237 248.387 45.3104 246.667 43.977 244.48C42.6704 242.267 42.017 239.773 42.017 237C42.017 234.227 42.6704 231.747 43.977 229.56C45.3104 227.347 47.1237 225.627 49.417 224.4C51.737 223.147 54.337 222.52 57.217 222.52C59.6437 222.52 61.8304 222.947 63.777 223.8C65.7504 224.653 67.4037 225.88 68.737 227.48L64.577 231.32C62.6837 229.133 60.337 228.04 57.537 228.04C55.8037 228.04 54.257 228.427 52.897 229.2C51.537 229.947 50.4704 231 49.697 232.36C48.9504 233.72 48.577 235.267 48.577 237C48.577 238.733 48.9504 240.28 49.697 241.64C50.4704 243 51.537 244.067 52.897 244.84C54.257 245.587 55.8037 245.96 57.537 245.96C60.337 245.96 62.6837 244.853 64.577 242.64L68.737 246.48C67.4037 248.107 65.7504 249.347 63.777 250.2C61.8037 251.053 59.6037 251.48 57.177 251.48ZM82.5967 229.16C85.93 229.16 88.49 229.96 90.2767 231.56C92.0634 233.133 92.9567 235.52 92.9567 238.72V251H87.1167V248.32C85.9434 250.32 83.7567 251.32 80.5567 251.32C78.9034 251.32 77.4634 251.04 76.2367 250.48C75.0367 249.92 74.1167 249.147 73.4767 248.16C72.8367 247.173 72.5167 246.053 72.5167 244.8C72.5167 242.8 73.2634 241.227 74.7567 240.08C76.2767 238.933 78.61 238.36 81.7567 238.36H86.7167C86.7167 237 86.3034 235.96 85.4767 235.24C84.65 234.493 83.41 234.12 81.7567 234.12C80.61 234.12 79.4767 234.307 78.3567 234.68C77.2634 235.027 76.33 235.507 75.5567 236.12L73.3167 231.76C74.49 230.933 75.89 230.293 77.5167 229.84C79.17 229.387 80.8634 229.16 82.5967 229.16ZM82.1167 247.12C83.1834 247.12 84.13 246.88 84.9567 246.4C85.7834 245.893 86.37 245.16 86.7167 244.2V242H82.4367C79.8767 242 78.5967 242.84 78.5967 244.52C78.5967 245.32 78.9034 245.96 79.5167 246.44C80.1567 246.893 81.0234 247.12 82.1167 247.12ZM112.724 229.16C114.724 229.16 116.538 229.627 118.164 230.56C119.818 231.467 121.111 232.76 122.044 234.44C122.978 236.093 123.444 238.027 123.444 240.24C123.444 242.453 122.978 244.4 122.044 246.08C121.111 247.733 119.818 249.027 118.164 249.96C116.538 250.867 114.724 251.32 112.724 251.32C109.978 251.32 107.818 250.453 106.244 248.72V258.76H100.004V229.48H105.964V231.96C107.511 230.093 109.764 229.16 112.724 229.16ZM111.644 246.2C113.244 246.2 114.551 245.667 115.564 244.6C116.604 243.507 117.124 242.053 117.124 240.24C117.124 238.427 116.604 236.987 115.564 235.92C114.551 234.827 113.244 234.28 111.644 234.28C110.044 234.28 108.724 234.827 107.684 235.92C106.671 236.987 106.164 238.427 106.164 240.24C106.164 242.053 106.671 243.507 107.684 244.6C108.724 245.667 110.044 246.2 111.644 246.2ZM142.901 249.96C142.288 250.413 141.528 250.76 140.621 251C139.741 251.213 138.808 251.32 137.821 251.32C135.261 251.32 133.275 250.667 131.861 249.36C130.475 248.053 129.781 246.133 129.781 243.6V234.76H126.461V229.96H129.781V224.72H136.021V229.96H141.381V234.76H136.021V243.52C136.021 244.427 136.248 245.133 136.701 245.64C137.181 246.12 137.848 246.36 138.701 246.36C139.688 246.36 140.528 246.093 141.221 245.56L142.901 249.96ZM169.484 229.48V251H163.564V248.44C162.738 249.373 161.751 250.093 160.604 250.6C159.458 251.08 158.218 251.32 156.884 251.32C154.058 251.32 151.818 250.507 150.164 248.88C148.511 247.253 147.684 244.84 147.684 241.64V229.48H153.924V240.72C153.924 244.187 155.378 245.92 158.284 245.92C159.778 245.92 160.978 245.44 161.884 244.48C162.791 243.493 163.244 242.04 163.244 240.12V229.48H169.484ZM182.625 232.32C183.372 231.28 184.372 230.493 185.625 229.96C186.905 229.427 188.372 229.16 190.025 229.16V234.92C189.332 234.867 188.865 234.84 188.625 234.84C186.838 234.84 185.438 235.347 184.425 236.36C183.412 237.347 182.905 238.84 182.905 240.84V251H176.665V229.48H182.625V232.32ZM216.02 240.32C216.02 240.4 215.98 240.96 215.9 242H199.62C199.913 243.333 200.607 244.387 201.7 245.16C202.793 245.933 204.153 246.32 205.78 246.32C206.9 246.32 207.887 246.16 208.74 245.84C209.62 245.493 210.433 244.96 211.18 244.24L214.5 247.84C212.473 250.16 209.513 251.32 205.62 251.32C203.193 251.32 201.047 250.853 199.18 249.92C197.313 248.96 195.873 247.64 194.86 245.96C193.847 244.28 193.34 242.373 193.34 240.24C193.34 238.133 193.833 236.24 194.82 234.56C195.833 232.853 197.207 231.533 198.94 230.6C200.7 229.64 202.66 229.16 204.82 229.16C206.927 229.16 208.833 229.613 210.54 230.52C212.247 231.427 213.58 232.733 214.54 234.44C215.527 236.12 216.02 238.08 216.02 240.32ZM204.86 233.88C203.447 233.88 202.26 234.28 201.3 235.08C200.34 235.88 199.753 236.973 199.54 238.36H210.14C209.927 237 209.34 235.92 208.38 235.12C207.42 234.293 206.247 233.88 204.86 233.88ZM25.2791 290.48L15.5591 313.32C14.5724 315.8 13.3457 317.547 11.8791 318.56C10.4391 319.573 8.6924 320.08 6.63906 320.08C5.51906 320.08 4.4124 319.907 3.31906 319.56C2.22573 319.213 1.3324 318.733 0.639062 318.12L2.91906 313.68C3.39906 314.107 3.94573 314.44 4.55906 314.68C5.19906 314.92 5.82573 315.04 6.43906 315.04C7.2924 315.04 7.98573 314.827 8.51906 314.4C9.0524 314 9.5324 313.32 9.95906 312.36L10.0391 312.16L0.719062 290.48H7.15906L13.1991 305.08L19.2791 290.48H25.2791ZM38.8794 312.32C36.6127 312.32 34.5727 311.853 32.7594 310.92C30.9727 309.96 29.5727 308.64 28.5594 306.96C27.546 305.28 27.0394 303.373 27.0394 301.24C27.0394 299.107 27.546 297.2 28.5594 295.52C29.5727 293.84 30.9727 292.533 32.7594 291.6C34.5727 290.64 36.6127 290.16 38.8794 290.16C41.146 290.16 43.1727 290.64 44.9594 291.6C46.746 292.533 48.146 293.84 49.1594 295.52C50.1727 297.2 50.6794 299.107 50.6794 301.24C50.6794 303.373 50.1727 305.28 49.1594 306.96C48.146 308.64 46.746 309.96 44.9594 310.92C43.1727 311.853 41.146 312.32 38.8794 312.32ZM38.8794 307.2C40.4794 307.2 41.786 306.667 42.7994 305.6C43.8394 304.507 44.3594 303.053 44.3594 301.24C44.3594 299.427 43.8394 297.987 42.7994 296.92C41.786 295.827 40.4794 295.28 38.8794 295.28C37.2794 295.28 35.9594 295.827 34.9194 296.92C33.8794 297.987 33.3594 299.427 33.3594 301.24C33.3594 303.053 33.8794 304.507 34.9194 305.6C35.9594 306.667 37.2794 307.2 38.8794 307.2ZM77.9303 290.48V312H72.0103V309.44C71.1837 310.373 70.197 311.093 69.0503 311.6C67.9036 312.08 66.6636 312.32 65.3303 312.32C62.5036 312.32 60.2636 311.507 58.6103 309.88C56.957 308.253 56.1303 305.84 56.1303 302.64V290.48H62.3703V301.72C62.3703 305.187 63.8236 306.92 66.7303 306.92C68.2236 306.92 69.4236 306.44 70.3303 305.48C71.237 304.493 71.6903 303.04 71.6903 301.12V290.48H77.9303ZM91.0712 293.32C91.8179 292.28 92.8179 291.493 94.0712 290.96C95.3512 290.427 96.8179 290.16 98.4712 290.16V295.92C97.7779 295.867 97.3112 295.84 97.0712 295.84C95.2846 295.84 93.8846 296.347 92.8712 297.36C91.8579 298.347 91.3512 299.84 91.3512 301.84V312H85.1112V290.48H91.0712V293.32ZM129.186 290.16C131.186 290.16 132.999 290.627 134.626 291.56C136.279 292.467 137.573 293.76 138.506 295.44C139.439 297.093 139.906 299.027 139.906 301.24C139.906 303.453 139.439 305.4 138.506 307.08C137.573 308.733 136.279 310.027 134.626 310.96C132.999 311.867 131.186 312.32 129.186 312.32C126.439 312.32 124.279 311.453 122.706 309.72V319.76H116.466V290.48H122.426V292.96C123.973 291.093 126.226 290.16 129.186 290.16ZM128.106 307.2C129.706 307.2 131.013 306.667 132.026 305.6C133.066 304.507 133.586 303.053 133.586 301.24C133.586 299.427 133.066 297.987 132.026 296.92C131.013 295.827 129.706 295.28 128.106 295.28C126.506 295.28 125.186 295.827 124.146 296.92C123.133 297.987 122.626 299.427 122.626 301.24C122.626 303.053 123.133 304.507 124.146 305.6C125.186 306.667 126.506 307.2 128.106 307.2ZM145.483 282.32H151.723V312H145.483V282.32ZM167.594 290.16C170.928 290.16 173.488 290.96 175.274 292.56C177.061 294.133 177.954 296.52 177.954 299.72V312H172.114V309.32C170.941 311.32 168.754 312.32 165.554 312.32C163.901 312.32 162.461 312.04 161.234 311.48C160.034 310.92 159.114 310.147 158.474 309.16C157.834 308.173 157.514 307.053 157.514 305.8C157.514 303.8 158.261 302.227 159.754 301.08C161.274 299.933 163.608 299.36 166.754 299.36H171.714C171.714 298 171.301 296.96 170.474 296.24C169.648 295.493 168.408 295.12 166.754 295.12C165.608 295.12 164.474 295.307 163.354 295.68C162.261 296.027 161.328 296.507 160.554 297.12L158.314 292.76C159.488 291.933 160.888 291.293 162.514 290.84C164.168 290.387 165.861 290.16 167.594 290.16ZM167.114 308.12C168.181 308.12 169.128 307.88 169.954 307.4C170.781 306.893 171.368 306.16 171.714 305.2V303H167.434C164.874 303 163.594 303.84 163.594 305.52C163.594 306.32 163.901 306.96 164.514 307.44C165.154 307.893 166.021 308.12 167.114 308.12ZM198.082 290.16C200.749 290.16 202.895 290.96 204.522 292.56C206.175 294.16 207.002 296.533 207.002 299.68V312H200.762V300.64C200.762 298.933 200.389 297.667 199.642 296.84C198.895 295.987 197.815 295.56 196.402 295.56C194.829 295.56 193.575 296.053 192.642 297.04C191.709 298 191.242 299.44 191.242 301.36V312H185.002V290.48H190.962V293C191.789 292.093 192.815 291.4 194.042 290.92C195.269 290.413 196.615 290.16 198.082 290.16ZM227.938 310.96C227.325 311.413 226.565 311.76 225.658 312C224.778 312.213 223.845 312.32 222.858 312.32C220.298 312.32 218.311 311.667 216.898 310.36C215.511 309.053 214.818 307.133 214.818 304.6V295.76H211.498V290.96H214.818V285.72H221.058V290.96H226.418V295.76H221.058V304.52C221.058 305.427 221.285 306.133 221.738 306.64C222.218 307.12 222.885 307.36 223.738 307.36C224.725 307.36 225.565 307.093 226.258 306.56L227.938 310.96ZM49.5058 351.48H55.7458V373H49.5058V351.48ZM52.6258 348.48C51.4791 348.48 50.5458 348.147 49.8258 347.48C49.1058 346.813 48.7458 345.987 48.7458 345C48.7458 344.013 49.1058 343.187 49.8258 342.52C50.5458 341.853 51.4791 341.52 52.6258 341.52C53.7724 341.52 54.7058 341.84 55.4258 342.48C56.1458 343.12 56.5058 343.92 56.5058 344.88C56.5058 345.92 56.1458 346.787 55.4258 347.48C54.7058 348.147 53.7724 348.48 52.6258 348.48ZM90.497 351.16C93.1904 351.16 95.3237 351.96 96.897 353.56C98.497 355.133 99.297 357.507 99.297 360.68V373H93.057V361.64C93.057 359.933 92.697 358.667 91.977 357.84C91.2837 356.987 90.2837 356.56 88.977 356.56C87.5104 356.56 86.3504 357.04 85.497 358C84.6437 358.933 84.217 360.333 84.217 362.2V373H77.977V361.64C77.977 358.253 76.617 356.56 73.897 356.56C72.457 356.56 71.3104 357.04 70.457 358C69.6037 358.933 69.177 360.333 69.177 362.2V373H62.937V351.48H68.897V353.96C69.697 353.053 70.6704 352.36 71.817 351.88C72.9904 351.4 74.2704 351.16 75.657 351.16C77.177 351.16 78.5504 351.467 79.777 352.08C81.0037 352.667 81.9904 353.533 82.737 354.68C83.617 353.56 84.7237 352.693 86.057 352.08C87.417 351.467 88.897 351.16 90.497 351.16ZM114.97 351.16C118.303 351.16 120.863 351.96 122.65 353.56C124.437 355.133 125.33 357.52 125.33 360.72V373H119.49V370.32C118.317 372.32 116.13 373.32 112.93 373.32C111.277 373.32 109.837 373.04 108.61 372.48C107.41 371.92 106.49 371.147 105.85 370.16C105.21 369.173 104.89 368.053 104.89 366.8C104.89 364.8 105.637 363.227 107.13 362.08C108.65 360.933 110.983 360.36 114.13 360.36H119.09C119.09 359 118.677 357.96 117.85 357.24C117.023 356.493 115.783 356.12 114.13 356.12C112.983 356.12 111.85 356.307 110.73 356.68C109.637 357.027 108.703 357.507 107.93 358.12L105.69 353.76C106.863 352.933 108.263 352.293 109.89 351.84C111.543 351.387 113.237 351.16 114.97 351.16ZM114.49 369.12C115.557 369.12 116.503 368.88 117.33 368.4C118.157 367.893 118.743 367.16 119.09 366.2V364H114.81C112.25 364 110.97 364.84 110.97 366.52C110.97 367.32 111.277 367.96 111.89 368.44C112.53 368.893 113.397 369.12 114.49 369.12ZM154.812 351.48V369.4C154.812 373.347 153.785 376.28 151.732 378.2C149.679 380.12 146.679 381.08 142.732 381.08C140.652 381.08 138.679 380.827 136.812 380.32C134.945 379.813 133.399 379.08 132.172 378.12L134.652 373.64C135.559 374.387 136.705 374.973 138.092 375.4C139.479 375.853 140.865 376.08 142.252 376.08C144.412 376.08 145.999 375.587 147.012 374.6C148.052 373.64 148.572 372.173 148.572 370.2V369.28C146.945 371.067 144.679 371.96 141.772 371.96C139.799 371.96 137.985 371.533 136.332 370.68C134.705 369.8 133.412 368.573 132.452 367C131.492 365.427 131.012 363.613 131.012 361.56C131.012 359.507 131.492 357.693 132.452 356.12C133.412 354.547 134.705 353.333 136.332 352.48C137.985 351.6 139.799 351.16 141.772 351.16C144.892 351.16 147.265 352.187 148.892 354.24V351.48H154.812ZM143.012 366.84C144.665 366.84 146.012 366.36 147.052 365.4C148.119 364.413 148.652 363.133 148.652 361.56C148.652 359.987 148.119 358.72 147.052 357.76C146.012 356.773 144.665 356.28 143.012 356.28C141.359 356.28 139.999 356.773 138.932 357.76C137.865 358.72 137.332 359.987 137.332 361.56C137.332 363.133 137.865 364.413 138.932 365.4C139.999 366.36 141.359 366.84 143.012 366.84ZM183.1 362.32C183.1 362.4 183.06 362.96 182.98 364H166.7C166.993 365.333 167.686 366.387 168.78 367.16C169.873 367.933 171.233 368.32 172.86 368.32C173.98 368.32 174.966 368.16 175.82 367.84C176.7 367.493 177.513 366.96 178.26 366.24L181.58 369.84C179.553 372.16 176.593 373.32 172.7 373.32C170.273 373.32 168.126 372.853 166.26 371.92C164.393 370.96 162.953 369.64 161.94 367.96C160.926 366.28 160.42 364.373 160.42 362.24C160.42 360.133 160.913 358.24 161.9 356.56C162.913 354.853 164.286 353.533 166.02 352.6C167.78 351.64 169.74 351.16 171.9 351.16C174.006 351.16 175.913 351.613 177.62 352.52C179.326 353.427 180.66 354.733 181.62 356.44C182.606 358.12 183.1 360.08 183.1 362.32ZM171.94 355.88C170.526 355.88 169.34 356.28 168.38 357.08C167.42 357.88 166.833 358.973 166.62 360.36H177.22C177.006 359 176.42 357.92 175.46 357.12C174.5 356.293 173.326 355.88 171.94 355.88Z" fill="#FAFAFA"/>
<path d="M326.017 245.72V251H304.857V246.8L315.657 236.6C316.803 235.507 317.577 234.573 317.977 233.8C318.377 233 318.577 232.213 318.577 231.44C318.577 230.32 318.19 229.467 317.417 228.88C316.67 228.267 315.563 227.96 314.097 227.96C312.87 227.96 311.763 228.2 310.777 228.68C309.79 229.133 308.963 229.827 308.297 230.76L303.577 227.72C304.67 226.093 306.177 224.827 308.097 223.92C310.017 222.987 312.217 222.52 314.697 222.52C316.777 222.52 318.59 222.867 320.137 223.56C321.71 224.227 322.923 225.187 323.777 226.44C324.657 227.667 325.097 229.12 325.097 230.8C325.097 232.32 324.777 233.747 324.137 235.08C323.497 236.413 322.257 237.933 320.417 239.64L313.977 245.72H326.017ZM334.161 251.32C333.068 251.32 332.148 250.947 331.401 250.2C330.654 249.453 330.281 248.52 330.281 247.4C330.281 246.253 330.654 245.333 331.401 244.64C332.148 243.92 333.068 243.56 334.161 243.56C335.254 243.56 336.174 243.92 336.921 244.64C337.668 245.333 338.041 246.253 338.041 247.4C338.041 248.52 337.668 249.453 336.921 250.2C336.174 250.947 335.254 251.32 334.161 251.32ZM353.7 251.48C351.487 251.48 349.34 251.187 347.26 250.6C345.207 249.987 343.554 249.2 342.3 248.24L344.5 243.36C345.7 244.24 347.127 244.947 348.78 245.48C350.434 246.013 352.087 246.28 353.74 246.28C355.58 246.28 356.94 246.013 357.82 245.48C358.7 244.92 359.14 244.187 359.14 243.28C359.14 242.613 358.874 242.067 358.34 241.64C357.834 241.187 357.167 240.827 356.34 240.56C355.54 240.293 354.447 240 353.06 239.68C350.927 239.173 349.18 238.667 347.82 238.16C346.46 237.653 345.287 236.84 344.3 235.72C343.34 234.6 342.86 233.107 342.86 231.24C342.86 229.613 343.3 228.147 344.18 226.84C345.06 225.507 346.38 224.453 348.14 223.68C349.927 222.907 352.1 222.52 354.66 222.52C356.447 222.52 358.194 222.733 359.9 223.16C361.607 223.587 363.1 224.2 364.38 225L362.38 229.92C359.794 228.453 357.207 227.72 354.62 227.72C352.807 227.72 351.46 228.013 350.58 228.6C349.727 229.187 349.3 229.96 349.3 230.92C349.3 231.88 349.794 232.6 350.78 233.08C351.794 233.533 353.327 233.987 355.38 234.44C357.514 234.947 359.26 235.453 360.62 235.96C361.98 236.467 363.14 237.267 364.1 238.36C365.087 239.453 365.58 240.933 365.58 242.8C365.58 244.4 365.127 245.867 364.22 247.2C363.34 248.507 362.007 249.547 360.22 250.32C358.434 251.093 356.26 251.48 353.7 251.48ZM392.048 240.32C392.048 240.4 392.008 240.96 391.928 242H375.648C375.942 243.333 376.635 244.387 377.728 245.16C378.822 245.933 380.182 246.32 381.808 246.32C382.928 246.32 383.915 246.16 384.768 245.84C385.648 245.493 386.462 244.96 387.208 244.24L390.528 247.84C388.502 250.16 385.542 251.32 381.648 251.32C379.222 251.32 377.075 250.853 375.208 249.92C373.342 248.96 371.902 247.64 370.888 245.96C369.875 244.28 369.368 242.373 369.368 240.24C369.368 238.133 369.862 236.24 370.848 234.56C371.862 232.853 373.235 231.533 374.968 230.6C376.728 229.64 378.688 229.16 380.848 229.16C382.955 229.16 384.862 229.613 386.568 230.52C388.275 231.427 389.608 232.733 390.568 234.44C391.555 236.12 392.048 238.08 392.048 240.32ZM380.888 233.88C379.475 233.88 378.288 234.28 377.328 235.08C376.368 235.88 375.782 236.973 375.568 238.36H386.168C385.955 237 385.368 235.92 384.408 235.12C383.448 234.293 382.275 233.88 380.888 233.88ZM397.603 221.32H403.843V251H397.603V221.32ZM432.114 240.32C432.114 240.4 432.074 240.96 431.994 242H415.714C416.007 243.333 416.701 244.387 417.794 245.16C418.887 245.933 420.247 246.32 421.874 246.32C422.994 246.32 423.981 246.16 424.834 245.84C425.714 245.493 426.527 244.96 427.274 244.24L430.594 247.84C428.567 250.16 425.607 251.32 421.714 251.32C419.287 251.32 417.141 250.853 415.274 249.92C413.407 248.96 411.967 247.64 410.954 245.96C409.941 244.28 409.434 242.373 409.434 240.24C409.434 238.133 409.927 236.24 410.914 234.56C411.927 232.853 413.301 231.533 415.034 230.6C416.794 229.64 418.754 229.16 420.914 229.16C423.021 229.16 424.927 229.613 426.634 230.52C428.341 231.427 429.674 232.733 430.634 234.44C431.621 236.12 432.114 238.08 432.114 240.32ZM420.954 233.88C419.541 233.88 418.354 234.28 417.394 235.08C416.434 235.88 415.847 236.973 415.634 238.36H426.234C426.021 237 425.434 235.92 424.474 235.12C423.514 234.293 422.341 233.88 420.954 233.88ZM448.068 251.32C445.775 251.32 443.708 250.853 441.868 249.92C440.055 248.96 438.628 247.64 437.588 245.96C436.575 244.28 436.068 242.373 436.068 240.24C436.068 238.107 436.575 236.2 437.588 234.52C438.628 232.84 440.055 231.533 441.868 230.6C443.708 229.64 445.775 229.16 448.068 229.16C450.335 229.16 452.308 229.64 453.988 230.6C455.695 231.533 456.935 232.88 457.708 234.64L452.868 237.24C451.748 235.267 450.135 234.28 448.028 234.28C446.402 234.28 445.055 234.813 443.988 235.88C442.922 236.947 442.388 238.4 442.388 240.24C442.388 242.08 442.922 243.533 443.988 244.6C445.055 245.667 446.402 246.2 448.028 246.2C450.162 246.2 451.775 245.213 452.868 243.24L457.708 245.88C456.935 247.587 455.695 248.92 453.988 249.88C452.308 250.84 450.335 251.32 448.068 251.32ZM476.894 249.96C476.28 250.413 475.52 250.76 474.614 251C473.734 251.213 472.8 251.32 471.814 251.32C469.254 251.32 467.267 250.667 465.854 249.36C464.467 248.053 463.774 246.133 463.774 243.6V234.76H460.454V229.96H463.774V224.72H470.014V229.96H475.374V234.76H470.014V243.52C470.014 244.427 470.24 245.133 470.694 245.64C471.174 246.12 471.84 246.36 472.694 246.36C473.68 246.36 474.52 246.093 475.214 245.56L476.894 249.96ZM515.885 229.48L506.165 252.32C505.178 254.8 503.951 256.547 502.485 257.56C501.045 258.573 499.298 259.08 497.245 259.08C496.125 259.08 495.018 258.907 493.925 258.56C492.831 258.213 491.938 257.733 491.245 257.12L493.525 252.68C494.005 253.107 494.551 253.44 495.165 253.68C495.805 253.92 496.431 254.04 497.045 254.04C497.898 254.04 498.591 253.827 499.125 253.4C499.658 253 500.138 252.32 500.565 251.36L500.645 251.16L491.325 229.48H497.765L503.805 244.08L509.885 229.48H515.885ZM529.485 251.32C527.218 251.32 525.178 250.853 523.365 249.92C521.578 248.96 520.178 247.64 519.165 245.96C518.152 244.28 517.645 242.373 517.645 240.24C517.645 238.107 518.152 236.2 519.165 234.52C520.178 232.84 521.578 231.533 523.365 230.6C525.178 229.64 527.218 229.16 529.485 229.16C531.752 229.16 533.778 229.64 535.565 230.6C537.352 231.533 538.752 232.84 539.765 234.52C540.778 236.2 541.285 238.107 541.285 240.24C541.285 242.373 540.778 244.28 539.765 245.96C538.752 247.64 537.352 248.96 535.565 249.92C533.778 250.853 531.752 251.32 529.485 251.32ZM529.485 246.2C531.085 246.2 532.392 245.667 533.405 244.6C534.445 243.507 534.965 242.053 534.965 240.24C534.965 238.427 534.445 236.987 533.405 235.92C532.392 234.827 531.085 234.28 529.485 234.28C527.885 234.28 526.565 234.827 525.525 235.92C524.485 236.987 523.965 238.427 523.965 240.24C523.965 242.053 524.485 243.507 525.525 244.6C526.565 245.667 527.885 246.2 529.485 246.2ZM568.536 229.48V251H562.616V248.44C561.789 249.373 560.802 250.093 559.656 250.6C558.509 251.08 557.269 251.32 555.936 251.32C553.109 251.32 550.869 250.507 549.216 248.88C547.562 247.253 546.736 244.84 546.736 241.64V229.48H552.976V240.72C552.976 244.187 554.429 245.92 557.336 245.92C558.829 245.92 560.029 245.44 560.936 244.48C561.842 243.493 562.296 242.04 562.296 240.12V229.48H568.536ZM581.677 232.32C582.423 231.28 583.423 230.493 584.677 229.96C585.957 229.427 587.423 229.16 589.077 229.16V234.92C588.383 234.867 587.917 234.84 587.677 234.84C585.89 234.84 584.49 235.347 583.477 236.36C582.463 237.347 581.957 238.84 581.957 240.84V251H575.717V229.48H581.677V232.32ZM403.913 284C406.393 284 408.539 284.413 410.353 285.24C412.193 286.067 413.606 287.24 414.593 288.76C415.579 290.28 416.073 292.08 416.073 294.16C416.073 296.213 415.579 298.013 414.593 299.56C413.606 301.08 412.193 302.253 410.353 303.08C408.539 303.88 406.393 304.28 403.913 304.28H398.273V312H391.793V284H403.913ZM403.553 299C405.499 299 406.979 298.587 407.993 297.76C409.006 296.907 409.513 295.707 409.513 294.16C409.513 292.587 409.006 291.387 407.993 290.56C406.979 289.707 405.499 289.28 403.553 289.28H398.273V299H403.553ZM422.05 282.32H428.29V312H422.05V282.32ZM444.161 290.16C447.494 290.16 450.054 290.96 451.841 292.56C453.627 294.133 454.521 296.52 454.521 299.72V312H448.681V309.32C447.507 311.32 445.321 312.32 442.121 312.32C440.467 312.32 439.027 312.04 437.801 311.48C436.601 310.92 435.681 310.147 435.041 309.16C434.401 308.173 434.081 307.053 434.081 305.8C434.081 303.8 434.827 302.227 436.321 301.08C437.841 299.933 440.174 299.36 443.321 299.36H448.281C448.281 298 447.867 296.96 447.041 296.24C446.214 295.493 444.974 295.12 443.321 295.12C442.174 295.12 441.041 295.307 439.921 295.68C438.827 296.027 437.894 296.507 437.121 297.12L434.881 292.76C436.054 291.933 437.454 291.293 439.081 290.84C440.734 290.387 442.427 290.16 444.161 290.16ZM443.681 308.12C444.747 308.12 445.694 307.88 446.521 307.4C447.347 306.893 447.934 306.16 448.281 305.2V303H444.001C441.441 303 440.161 303.84 440.161 305.52C440.161 306.32 440.467 306.96 441.081 307.44C441.721 307.893 442.587 308.12 443.681 308.12ZM474.648 290.16C477.315 290.16 479.462 290.96 481.088 292.56C482.742 294.16 483.568 296.533 483.568 299.68V312H477.328V300.64C477.328 298.933 476.955 297.667 476.208 296.84C475.462 295.987 474.382 295.56 472.968 295.56C471.395 295.56 470.142 296.053 469.208 297.04C468.275 298 467.808 299.44 467.808 301.36V312H461.568V290.48H467.528V293C468.355 292.093 469.382 291.4 470.608 290.92C471.835 290.413 473.182 290.16 474.648 290.16ZM504.505 310.96C503.891 311.413 503.131 311.76 502.225 312C501.345 312.213 500.411 312.32 499.425 312.32C496.865 312.32 494.878 311.667 493.465 310.36C492.078 309.053 491.385 307.133 491.385 304.6V295.76H488.065V290.96H491.385V285.72H497.625V290.96H502.985V295.76H497.625V304.52C497.625 305.427 497.851 306.133 498.305 306.64C498.785 307.12 499.451 307.36 500.305 307.36C501.291 307.36 502.131 307.093 502.825 306.56L504.505 310.96Z" fill="#FAFAFA"/>
<path d="M716.782 234.4C719.236 234.8 721.116 235.72 722.422 237.16C723.729 238.573 724.382 240.333 724.382 242.44C724.382 244.067 723.956 245.573 723.102 246.96C722.249 248.32 720.942 249.413 719.182 250.24C717.449 251.067 715.316 251.48 712.782 251.48C710.809 251.48 708.862 251.227 706.942 250.72C705.049 250.187 703.436 249.44 702.102 248.48L704.622 243.52C705.689 244.32 706.916 244.947 708.302 245.4C709.716 245.827 711.156 246.04 712.622 246.04C714.249 246.04 715.529 245.733 716.462 245.12C717.396 244.48 717.862 243.587 717.862 242.44C717.862 240.147 716.116 239 712.622 239H709.662V234.72L715.422 228.2H703.502V223H723.102V227.2L716.782 234.4ZM732.454 251.32C731.361 251.32 730.441 250.947 729.694 250.2C728.947 249.453 728.574 248.52 728.574 247.4C728.574 246.253 728.947 245.333 729.694 244.64C730.441 243.92 731.361 243.56 732.454 243.56C733.547 243.56 734.467 243.92 735.214 244.64C735.961 245.333 736.334 246.253 736.334 247.4C736.334 248.52 735.961 249.453 735.214 250.2C734.467 250.947 733.547 251.32 732.454 251.32ZM754.569 251.48C750.569 251.48 747.449 250.373 745.209 248.16C742.996 245.947 741.889 242.787 741.889 238.68V223H748.369V238.44C748.369 243.453 750.449 245.96 754.609 245.96C756.636 245.96 758.183 245.36 759.249 244.16C760.316 242.933 760.849 241.027 760.849 238.44V223H767.249V238.68C767.249 242.787 766.129 245.947 763.889 248.16C761.676 250.373 758.569 251.48 754.569 251.48ZM787.333 229.16C789.333 229.16 791.146 229.627 792.773 230.56C794.426 231.467 795.719 232.76 796.653 234.44C797.586 236.093 798.053 238.027 798.053 240.24C798.053 242.453 797.586 244.4 796.653 246.08C795.719 247.733 794.426 249.027 792.773 249.96C791.146 250.867 789.333 251.32 787.333 251.32C784.586 251.32 782.426 250.453 780.853 248.72V258.76H774.613V229.48H780.573V231.96C782.119 230.093 784.373 229.16 787.333 229.16ZM786.253 246.2C787.853 246.2 789.159 245.667 790.173 244.6C791.213 243.507 791.733 242.053 791.733 240.24C791.733 238.427 791.213 236.987 790.173 235.92C789.159 234.827 787.853 234.28 786.253 234.28C784.653 234.28 783.333 234.827 782.293 235.92C781.279 236.987 780.773 238.427 780.773 240.24C780.773 242.053 781.279 243.507 782.293 244.6C783.333 245.667 784.653 246.2 786.253 246.2ZM803.63 221.32H809.87V251H803.63V221.32ZM827.301 251.32C825.035 251.32 822.995 250.853 821.181 249.92C819.395 248.96 817.995 247.64 816.981 245.96C815.968 244.28 815.461 242.373 815.461 240.24C815.461 238.107 815.968 236.2 816.981 234.52C817.995 232.84 819.395 231.533 821.181 230.6C822.995 229.64 825.035 229.16 827.301 229.16C829.568 229.16 831.595 229.64 833.381 230.6C835.168 231.533 836.568 232.84 837.581 234.52C838.595 236.2 839.101 238.107 839.101 240.24C839.101 242.373 838.595 244.28 837.581 245.96C836.568 247.64 835.168 248.96 833.381 249.92C831.595 250.853 829.568 251.32 827.301 251.32ZM827.301 246.2C828.901 246.2 830.208 245.667 831.221 244.6C832.261 243.507 832.781 242.053 832.781 240.24C832.781 238.427 832.261 236.987 831.221 235.92C830.208 234.827 828.901 234.28 827.301 234.28C825.701 234.28 824.381 234.827 823.341 235.92C822.301 236.987 821.781 238.427 821.781 240.24C821.781 242.053 822.301 243.507 823.341 244.6C824.381 245.667 825.701 246.2 827.301 246.2ZM853.001 229.16C856.334 229.16 858.894 229.96 860.681 231.56C862.467 233.133 863.361 235.52 863.361 238.72V251H857.521V248.32C856.347 250.32 854.161 251.32 850.961 251.32C849.307 251.32 847.867 251.04 846.641 250.48C845.441 249.92 844.521 249.147 843.881 248.16C843.241 247.173 842.921 246.053 842.921 244.8C842.921 242.8 843.667 241.227 845.161 240.08C846.681 238.933 849.014 238.36 852.161 238.36H857.121C857.121 237 856.707 235.96 855.881 235.24C855.054 234.493 853.814 234.12 852.161 234.12C851.014 234.12 849.881 234.307 848.761 234.68C847.667 235.027 846.734 235.507 845.961 236.12L843.721 231.76C844.894 230.933 846.294 230.293 847.921 229.84C849.574 229.387 851.267 229.16 853.001 229.16ZM852.521 247.12C853.587 247.12 854.534 246.88 855.361 246.4C856.187 245.893 856.774 245.16 857.121 244.2V242H852.841C850.281 242 849.001 242.84 849.001 244.52C849.001 245.32 849.307 245.96 849.921 246.44C850.561 246.893 851.427 247.12 852.521 247.12ZM892.563 221.32V251H886.603V248.52C885.056 250.387 882.816 251.32 879.883 251.32C877.856 251.32 876.016 250.867 874.363 249.96C872.736 249.053 871.456 247.76 870.523 246.08C869.589 244.4 869.123 242.453 869.123 240.24C869.123 238.027 869.589 236.08 870.523 234.4C871.456 232.72 872.736 231.427 874.363 230.52C876.016 229.613 877.856 229.16 879.883 229.16C882.629 229.16 884.776 230.027 886.323 231.76V221.32H892.563ZM880.963 246.2C882.536 246.2 883.843 245.667 884.883 244.6C885.923 243.507 886.443 242.053 886.443 240.24C886.443 238.427 885.923 236.987 884.883 235.92C883.843 234.827 882.536 234.28 880.963 234.28C879.363 234.28 878.043 234.827 877.003 235.92C875.963 236.987 875.443 238.427 875.443 240.24C875.443 242.053 875.963 243.507 877.003 244.6C878.043 245.667 879.363 246.2 880.963 246.2ZM664.066 290.16C666.066 290.16 667.88 290.627 669.506 291.56C671.16 292.467 672.453 293.76 673.386 295.44C674.32 297.093 674.786 299.027 674.786 301.24C674.786 303.453 674.32 305.4 673.386 307.08C672.453 308.733 671.16 310.027 669.506 310.96C667.88 311.867 666.066 312.32 664.066 312.32C661.32 312.32 659.16 311.453 657.586 309.72V319.76H651.346V290.48H657.306V292.96C658.853 291.093 661.106 290.16 664.066 290.16ZM662.986 307.2C664.586 307.2 665.893 306.667 666.906 305.6C667.946 304.507 668.466 303.053 668.466 301.24C668.466 299.427 667.946 297.987 666.906 296.92C665.893 295.827 664.586 295.28 662.986 295.28C661.386 295.28 660.066 295.827 659.026 296.92C658.013 297.987 657.506 299.427 657.506 301.24C657.506 303.053 658.013 304.507 659.026 305.6C660.066 306.667 661.386 307.2 662.986 307.2ZM680.364 282.32H686.604V312H680.364V282.32ZM702.475 290.16C705.808 290.16 708.368 290.96 710.155 292.56C711.942 294.133 712.835 296.52 712.835 299.72V312H706.995V309.32C705.822 311.32 703.635 312.32 700.435 312.32C698.782 312.32 697.342 312.04 696.115 311.48C694.915 310.92 693.995 310.147 693.355 309.16C692.715 308.173 692.395 307.053 692.395 305.8C692.395 303.8 693.142 302.227 694.635 301.08C696.155 299.933 698.488 299.36 701.635 299.36H706.595C706.595 298 706.182 296.96 705.355 296.24C704.528 295.493 703.288 295.12 701.635 295.12C700.488 295.12 699.355 295.307 698.235 295.68C697.142 296.027 696.208 296.507 695.435 297.12L693.195 292.76C694.368 291.933 695.768 291.293 697.395 290.84C699.048 290.387 700.742 290.16 702.475 290.16ZM701.995 308.12C703.062 308.12 704.008 307.88 704.835 307.4C705.662 306.893 706.248 306.16 706.595 305.2V303H702.315C699.755 303 698.475 303.84 698.475 305.52C698.475 306.32 698.782 306.96 699.395 307.44C700.035 307.893 700.902 308.12 701.995 308.12ZM732.962 290.16C735.629 290.16 737.776 290.96 739.402 292.56C741.056 294.16 741.882 296.533 741.882 299.68V312H735.642V300.64C735.642 298.933 735.269 297.667 734.522 296.84C733.776 295.987 732.696 295.56 731.282 295.56C729.709 295.56 728.456 296.053 727.522 297.04C726.589 298 726.122 299.44 726.122 301.36V312H719.882V290.48H725.842V293C726.669 292.093 727.696 291.4 728.922 290.92C730.149 290.413 731.496 290.16 732.962 290.16ZM762.819 310.96C762.205 311.413 761.445 311.76 760.539 312C759.659 312.213 758.725 312.32 757.739 312.32C755.179 312.32 753.192 311.667 751.779 310.36C750.392 309.053 749.699 307.133 749.699 304.6V295.76H746.379V290.96H749.699V285.72H755.939V290.96H761.299V295.76H755.939V304.52C755.939 305.427 756.165 306.133 756.619 306.64C757.099 307.12 757.765 307.36 758.619 307.36C759.605 307.36 760.445 307.093 761.139 306.56L762.819 310.96ZM770.121 282C771.241 282 772.161 282.36 772.881 283.08C773.601 283.773 773.961 284.693 773.961 285.84C773.961 286.373 773.895 286.907 773.761 287.44C773.628 287.973 773.348 288.773 772.921 289.84L770.601 295.6H766.641L768.361 289.28C767.695 288.987 767.175 288.547 766.801 287.96C766.428 287.373 766.241 286.667 766.241 285.84C766.241 284.693 766.601 283.773 767.321 283.08C768.068 282.36 769.001 282 770.121 282ZM786.127 312.32C784.34 312.32 782.594 312.107 780.887 311.68C779.18 311.227 777.82 310.667 776.807 310L778.887 305.52C779.847 306.133 781.007 306.64 782.367 307.04C783.727 307.413 785.06 307.6 786.367 307.6C789.007 307.6 790.327 306.947 790.327 305.64C790.327 305.027 789.967 304.587 789.247 304.32C788.527 304.053 787.42 303.827 785.927 303.64C784.167 303.373 782.714 303.067 781.567 302.72C780.42 302.373 779.42 301.76 778.567 300.88C777.74 300 777.327 298.747 777.327 297.12C777.327 295.76 777.714 294.56 778.487 293.52C779.287 292.453 780.434 291.627 781.927 291.04C783.447 290.453 785.234 290.16 787.287 290.16C788.807 290.16 790.314 290.333 791.807 290.68C793.327 291 794.58 291.453 795.567 292.04L793.487 296.48C791.594 295.413 789.527 294.88 787.287 294.88C785.954 294.88 784.954 295.067 784.287 295.44C783.62 295.813 783.287 296.293 783.287 296.88C783.287 297.547 783.647 298.013 784.367 298.28C785.087 298.547 786.234 298.8 787.807 299.04C789.567 299.333 791.007 299.653 792.127 300C793.247 300.32 794.22 300.92 795.047 301.8C795.874 302.68 796.287 303.907 796.287 305.48C796.287 306.813 795.887 308 795.087 309.04C794.287 310.08 793.114 310.893 791.567 311.48C790.047 312.04 788.234 312.32 786.127 312.32ZM814.265 290.48H820.505V312H814.265V290.48ZM817.385 287.48C816.238 287.48 815.305 287.147 814.585 286.48C813.865 285.813 813.505 284.987 813.505 284C813.505 283.013 813.865 282.187 814.585 281.52C815.305 280.853 816.238 280.52 817.385 280.52C818.532 280.52 819.465 280.84 820.185 281.48C820.905 282.12 821.265 282.92 821.265 283.88C821.265 284.92 820.905 285.787 820.185 286.48C819.465 287.147 818.532 287.48 817.385 287.48ZM855.256 290.16C857.95 290.16 860.083 290.96 861.656 292.56C863.256 294.133 864.056 296.507 864.056 299.68V312H857.816V300.64C857.816 298.933 857.456 297.667 856.736 296.84C856.043 295.987 855.043 295.56 853.736 295.56C852.27 295.56 851.11 296.04 850.256 297C849.403 297.933 848.976 299.333 848.976 301.2V312H842.736V300.64C842.736 297.253 841.376 295.56 838.656 295.56C837.216 295.56 836.07 296.04 835.216 297C834.363 297.933 833.936 299.333 833.936 301.2V312H827.696V290.48H833.656V292.96C834.456 292.053 835.43 291.36 836.576 290.88C837.75 290.4 839.03 290.16 840.416 290.16C841.936 290.16 843.31 290.467 844.536 291.08C845.763 291.667 846.75 292.533 847.496 293.68C848.376 292.56 849.483 291.693 850.816 291.08C852.176 290.467 853.656 290.16 855.256 290.16ZM879.73 290.16C883.063 290.16 885.623 290.96 887.41 292.56C889.196 294.133 890.09 296.52 890.09 299.72V312H884.25V309.32C883.076 311.32 880.89 312.32 877.69 312.32C876.036 312.32 874.596 312.04 873.37 311.48C872.17 310.92 871.25 310.147 870.61 309.16C869.97 308.173 869.65 307.053 869.65 305.8C869.65 303.8 870.396 302.227 871.89 301.08C873.41 299.933 875.743 299.36 878.89 299.36H883.85C883.85 298 883.436 296.96 882.61 296.24C881.783 295.493 880.543 295.12 878.89 295.12C877.743 295.12 876.61 295.307 875.49 295.68C874.396 296.027 873.463 296.507 872.69 297.12L870.45 292.76C871.623 291.933 873.023 291.293 874.65 290.84C876.303 290.387 877.996 290.16 879.73 290.16ZM879.25 308.12C880.316 308.12 881.263 307.88 882.09 307.4C882.916 306.893 883.503 306.16 883.85 305.2V303H879.57C877.01 303 875.73 303.84 875.73 305.52C875.73 306.32 876.036 306.96 876.65 307.44C877.29 307.893 878.156 308.12 879.25 308.12ZM919.571 290.48V308.4C919.571 312.347 918.545 315.28 916.491 317.2C914.438 319.12 911.438 320.08 907.491 320.08C905.411 320.08 903.438 319.827 901.571 319.32C899.705 318.813 898.158 318.08 896.931 317.12L899.411 312.64C900.318 313.387 901.465 313.973 902.851 314.4C904.238 314.853 905.625 315.08 907.011 315.08C909.171 315.08 910.758 314.587 911.771 313.6C912.811 312.64 913.331 311.173 913.331 309.2V308.28C911.705 310.067 909.438 310.96 906.531 310.96C904.558 310.96 902.745 310.533 901.091 309.68C899.465 308.8 898.171 307.573 897.211 306C896.251 304.427 895.771 302.613 895.771 300.56C895.771 298.507 896.251 296.693 897.211 295.12C898.171 293.547 899.465 292.333 901.091 291.48C902.745 290.6 904.558 290.16 906.531 290.16C909.651 290.16 912.025 291.187 913.651 293.24V290.48H919.571ZM907.771 305.84C909.425 305.84 910.771 305.36 911.811 304.4C912.878 303.413 913.411 302.133 913.411 300.56C913.411 298.987 912.878 297.72 911.811 296.76C910.771 295.773 909.425 295.28 907.771 295.28C906.118 295.28 904.758 295.773 903.691 296.76C902.625 297.72 902.091 298.987 902.091 300.56C902.091 302.133 902.625 303.413 903.691 304.4C904.758 305.36 906.118 305.84 907.771 305.84ZM947.859 301.32C947.859 301.4 947.819 301.96 947.739 303H931.459C931.753 304.333 932.446 305.387 933.539 306.16C934.633 306.933 935.993 307.32 937.619 307.32C938.739 307.32 939.726 307.16 940.579 306.84C941.459 306.493 942.273 305.96 943.019 305.24L946.339 308.84C944.313 311.16 941.353 312.32 937.459 312.32C935.033 312.32 932.886 311.853 931.019 310.92C929.153 309.96 927.713 308.64 926.699 306.96C925.686 305.28 925.179 303.373 925.179 301.24C925.179 299.133 925.673 297.24 926.659 295.56C927.673 293.853 929.046 292.533 930.779 291.6C932.539 290.64 934.499 290.16 936.659 290.16C938.766 290.16 940.673 290.613 942.379 291.52C944.086 292.427 945.419 293.733 946.379 295.44C947.366 297.12 947.859 299.08 947.859 301.32ZM936.699 294.88C935.286 294.88 934.099 295.28 933.139 296.08C932.179 296.88 931.593 297.973 931.379 299.36H941.979C941.766 298 941.179 296.92 940.219 296.12C939.259 295.293 938.086 294.88 936.699 294.88ZM691.057 371.96C690.444 372.413 689.684 372.76 688.777 373C687.897 373.213 686.964 373.32 685.977 373.32C683.417 373.32 681.43 372.667 680.017 371.36C678.63 370.053 677.937 368.133 677.937 365.6V356.76H674.617V351.96H677.937V346.72H684.177V351.96H689.537V356.76H684.177V365.52C684.177 366.427 684.404 367.133 684.857 367.64C685.337 368.12 686.004 368.36 686.857 368.36C687.844 368.36 688.684 368.093 689.377 367.56L691.057 371.96ZM705.536 373.32C703.269 373.32 701.229 372.853 699.416 371.92C697.629 370.96 696.229 369.64 695.216 367.96C694.202 366.28 693.696 364.373 693.696 362.24C693.696 360.107 694.202 358.2 695.216 356.52C696.229 354.84 697.629 353.533 699.416 352.6C701.229 351.64 703.269 351.16 705.536 351.16C707.802 351.16 709.829 351.64 711.616 352.6C713.402 353.533 714.802 354.84 715.816 356.52C716.829 358.2 717.336 360.107 717.336 362.24C717.336 364.373 716.829 366.28 715.816 367.96C714.802 369.64 713.402 370.96 711.616 371.92C709.829 372.853 707.802 373.32 705.536 373.32ZM705.536 368.2C707.136 368.2 708.442 367.667 709.456 366.6C710.496 365.507 711.016 364.053 711.016 362.24C711.016 360.427 710.496 358.987 709.456 357.92C708.442 356.827 707.136 356.28 705.536 356.28C703.936 356.28 702.616 356.827 701.576 357.92C700.536 358.987 700.016 360.427 700.016 362.24C700.016 364.053 700.536 365.507 701.576 366.6C702.616 367.667 703.936 368.2 705.536 368.2ZM748.355 351.16C750.355 351.16 752.168 351.627 753.795 352.56C755.448 353.467 756.741 354.76 757.675 356.44C758.608 358.093 759.075 360.027 759.075 362.24C759.075 364.453 758.608 366.4 757.675 368.08C756.741 369.733 755.448 371.027 753.795 371.96C752.168 372.867 750.355 373.32 748.355 373.32C745.608 373.32 743.448 372.453 741.875 370.72V380.76H735.635V351.48H741.595V353.96C743.141 352.093 745.395 351.16 748.355 351.16ZM747.275 368.2C748.875 368.2 750.181 367.667 751.195 366.6C752.235 365.507 752.755 364.053 752.755 362.24C752.755 360.427 752.235 358.987 751.195 357.92C750.181 356.827 748.875 356.28 747.275 356.28C745.675 356.28 744.355 356.827 743.315 357.92C742.301 358.987 741.795 360.427 741.795 362.24C741.795 364.053 742.301 365.507 743.315 366.6C744.355 367.667 745.675 368.2 747.275 368.2ZM764.652 343.32H770.892V373H764.652V343.32ZM786.763 351.16C790.096 351.16 792.656 351.96 794.443 353.56C796.23 355.133 797.123 357.52 797.123 360.72V373H791.283V370.32C790.11 372.32 787.923 373.32 784.723 373.32C783.07 373.32 781.63 373.04 780.403 372.48C779.203 371.92 778.283 371.147 777.643 370.16C777.003 369.173 776.683 368.053 776.683 366.8C776.683 364.8 777.43 363.227 778.923 362.08C780.443 360.933 782.776 360.36 785.923 360.36H790.883C790.883 359 790.47 357.96 789.643 357.24C788.816 356.493 787.576 356.12 785.923 356.12C784.776 356.12 783.643 356.307 782.523 356.68C781.43 357.027 780.496 357.507 779.723 358.12L777.483 353.76C778.656 352.933 780.056 352.293 781.683 351.84C783.336 351.387 785.03 351.16 786.763 351.16ZM786.283 369.12C787.35 369.12 788.296 368.88 789.123 368.4C789.95 367.893 790.536 367.16 790.883 366.2V364H786.603C784.043 364 782.763 364.84 782.763 366.52C782.763 367.32 783.07 367.96 783.683 368.44C784.323 368.893 785.19 369.12 786.283 369.12ZM818.051 371.96C817.437 372.413 816.677 372.76 815.771 373C814.891 373.213 813.957 373.32 812.971 373.32C810.411 373.32 808.424 372.667 807.011 371.36C805.624 370.053 804.931 368.133 804.931 365.6V356.76H801.611V351.96H804.931V346.72H811.171V351.96H816.531V356.76H811.171V365.52C811.171 366.427 811.397 367.133 811.851 367.64C812.331 368.12 812.997 368.36 813.851 368.36C814.837 368.36 815.677 368.093 816.371 367.56L818.051 371.96ZM829.793 351.96H835.313V356.76H829.953V373H823.713V356.76H820.393V351.96H823.713V351C823.713 348.547 824.433 346.6 825.873 345.16C827.34 343.72 829.393 343 832.033 343C832.967 343 833.847 343.107 834.673 343.32C835.527 343.507 836.233 343.787 836.793 344.16L835.153 348.68C834.433 348.173 833.593 347.92 832.633 347.92C830.74 347.92 829.793 348.96 829.793 351.04V351.96ZM849.789 373.32C847.522 373.32 845.482 372.853 843.669 371.92C841.882 370.96 840.482 369.64 839.469 367.96C838.455 366.28 837.949 364.373 837.949 362.24C837.949 360.107 838.455 358.2 839.469 356.52C840.482 354.84 841.882 353.533 843.669 352.6C845.482 351.64 847.522 351.16 849.789 351.16C852.055 351.16 854.082 351.64 855.869 352.6C857.655 353.533 859.055 354.84 860.069 356.52C861.082 358.2 861.589 360.107 861.589 362.24C861.589 364.373 861.082 366.28 860.069 367.96C859.055 369.64 857.655 370.96 855.869 371.92C854.082 372.853 852.055 373.32 849.789 373.32ZM849.789 368.2C851.389 368.2 852.695 367.667 853.709 366.6C854.749 365.507 855.269 364.053 855.269 362.24C855.269 360.427 854.749 358.987 853.709 357.92C852.695 356.827 851.389 356.28 849.789 356.28C848.189 356.28 846.869 356.827 845.829 357.92C844.789 358.987 844.269 360.427 844.269 362.24C844.269 364.053 844.789 365.507 845.829 366.6C846.869 367.667 848.189 368.2 849.789 368.2ZM873.12 354.32C873.866 353.28 874.866 352.493 876.12 351.96C877.4 351.427 878.866 351.16 880.52 351.16V356.92C879.826 356.867 879.36 356.84 879.12 356.84C877.333 356.84 875.933 357.347 874.92 358.36C873.906 359.347 873.4 360.84 873.4 362.84V373H867.16V351.48H873.12V354.32ZM913.19 351.16C915.883 351.16 918.017 351.96 919.59 353.56C921.19 355.133 921.99 357.507 921.99 360.68V373H915.75V361.64C915.75 359.933 915.39 358.667 914.67 357.84C913.977 356.987 912.977 356.56 911.67 356.56C910.203 356.56 909.043 357.04 908.19 358C907.337 358.933 906.91 360.333 906.91 362.2V373H900.67V361.64C900.67 358.253 899.31 356.56 896.59 356.56C895.15 356.56 894.003 357.04 893.15 358C892.297 358.933 891.87 360.333 891.87 362.2V373H885.63V351.48H891.59V353.96C892.39 353.053 893.363 352.36 894.51 351.88C895.683 351.4 896.963 351.16 898.35 351.16C899.87 351.16 901.243 351.467 902.47 352.08C903.697 352.667 904.683 353.533 905.43 354.68C906.31 353.56 907.417 352.693 908.75 352.08C910.11 351.467 911.59 351.16 913.19 351.16Z" fill="#FAFAFA"/>
<path d="M1068.95 234.4C1071.4 234.8 1073.28 235.72 1074.59 237.16C1075.9 238.573 1076.55 240.333 1076.55 242.44C1076.55 244.067 1076.12 245.573 1075.27 246.96C1074.42 248.32 1073.11 249.413 1071.35 250.24C1069.62 251.067 1067.48 251.48 1064.95 251.48C1062.98 251.48 1061.03 251.227 1059.11 250.72C1057.22 250.187 1055.6 249.44 1054.27 248.48L1056.79 243.52C1057.86 244.32 1059.08 244.947 1060.47 245.4C1061.88 245.827 1063.32 246.04 1064.79 246.04C1066.42 246.04 1067.7 245.733 1068.63 245.12C1069.56 244.48 1070.03 243.587 1070.03 242.44C1070.03 240.147 1068.28 239 1064.79 239H1061.83V234.72L1067.59 228.2H1055.67V223H1075.27V227.2L1068.95 234.4ZM1084.62 251.32C1083.53 251.32 1082.61 250.947 1081.86 250.2C1081.11 249.453 1080.74 248.52 1080.74 247.4C1080.74 246.253 1081.11 245.333 1081.86 244.64C1082.61 243.92 1083.53 243.56 1084.62 243.56C1085.71 243.56 1086.63 243.92 1087.38 244.64C1088.13 245.333 1088.5 246.253 1088.5 247.4C1088.5 248.52 1088.13 249.453 1087.38 250.2C1086.63 250.947 1085.71 251.32 1084.62 251.32ZM1112.71 236.56H1118.63V247.92C1117.11 249.067 1115.35 249.947 1113.35 250.56C1111.35 251.173 1109.33 251.48 1107.31 251.48C1104.4 251.48 1101.79 250.867 1099.47 249.64C1097.15 248.387 1095.32 246.667 1093.99 244.48C1092.68 242.267 1092.03 239.773 1092.03 237C1092.03 234.227 1092.68 231.747 1093.99 229.56C1095.32 227.347 1097.16 225.627 1099.51 224.4C1101.85 223.147 1104.49 222.52 1107.43 222.52C1109.88 222.52 1112.11 222.933 1114.11 223.76C1116.11 224.587 1117.79 225.787 1119.15 227.36L1114.99 231.2C1112.99 229.093 1110.57 228.04 1107.75 228.04C1105.96 228.04 1104.37 228.413 1102.99 229.16C1101.6 229.907 1100.52 230.96 1099.75 232.32C1098.97 233.68 1098.59 235.24 1098.59 237C1098.59 238.733 1098.97 240.28 1099.75 241.64C1100.52 243 1101.59 244.067 1102.95 244.84C1104.33 245.587 1105.91 245.96 1107.67 245.96C1109.53 245.96 1111.21 245.56 1112.71 244.76V236.56ZM1146.69 240.32C1146.69 240.4 1146.65 240.96 1146.57 242H1130.29C1130.58 243.333 1131.27 244.387 1132.37 245.16C1133.46 245.933 1134.82 246.32 1136.45 246.32C1137.57 246.32 1138.55 246.16 1139.41 245.84C1140.29 245.493 1141.1 244.96 1141.85 244.24L1145.17 247.84C1143.14 250.16 1140.18 251.32 1136.29 251.32C1133.86 251.32 1131.71 250.853 1129.85 249.92C1127.98 248.96 1126.54 247.64 1125.53 245.96C1124.51 244.28 1124.01 242.373 1124.01 240.24C1124.01 238.133 1124.5 236.24 1125.49 234.56C1126.5 232.853 1127.87 231.533 1129.61 230.6C1131.37 229.64 1133.33 229.16 1135.49 229.16C1137.59 229.16 1139.5 229.613 1141.21 230.52C1142.91 231.427 1144.25 232.733 1145.21 234.44C1146.19 236.12 1146.69 238.08 1146.69 240.32ZM1135.53 233.88C1134.11 233.88 1132.93 234.28 1131.97 235.08C1131.01 235.88 1130.42 236.973 1130.21 238.36H1140.81C1140.59 237 1140.01 235.92 1139.05 235.12C1138.09 234.293 1136.91 233.88 1135.53 233.88ZM1166.12 249.96C1165.51 250.413 1164.75 250.76 1163.84 251C1162.96 251.213 1162.03 251.32 1161.04 251.32C1158.48 251.32 1156.5 250.667 1155.08 249.36C1153.7 248.053 1153 246.133 1153 243.6V234.76H1149.68V229.96H1153V224.72H1159.24V229.96H1164.6V234.76H1159.24V243.52C1159.24 244.427 1159.47 245.133 1159.92 245.64C1160.4 246.12 1161.07 246.36 1161.92 246.36C1162.91 246.36 1163.75 246.093 1164.44 245.56L1166.12 249.96ZM1205.11 229.48L1195.39 252.32C1194.41 254.8 1193.18 256.547 1191.71 257.56C1190.27 258.573 1188.53 259.08 1186.47 259.08C1185.35 259.08 1184.25 258.907 1183.15 258.56C1182.06 258.213 1181.17 257.733 1180.47 257.12L1182.75 252.68C1183.23 253.107 1183.78 253.44 1184.39 253.68C1185.03 253.92 1185.66 254.04 1186.27 254.04C1187.13 254.04 1187.82 253.827 1188.35 253.4C1188.89 253 1189.37 252.32 1189.79 251.36L1189.87 251.16L1180.55 229.48H1186.99L1193.03 244.08L1199.11 229.48H1205.11ZM1218.71 251.32C1216.45 251.32 1214.41 250.853 1212.59 249.92C1210.81 248.96 1209.41 247.64 1208.39 245.96C1207.38 244.28 1206.87 242.373 1206.87 240.24C1206.87 238.107 1207.38 236.2 1208.39 234.52C1209.41 232.84 1210.81 231.533 1212.59 230.6C1214.41 229.64 1216.45 229.16 1218.71 229.16C1220.98 229.16 1223.01 229.64 1224.79 230.6C1226.58 231.533 1227.98 232.84 1228.99 234.52C1230.01 236.2 1230.51 238.107 1230.51 240.24C1230.51 242.373 1230.01 244.28 1228.99 245.96C1227.98 247.64 1226.58 248.96 1224.79 249.92C1223.01 250.853 1220.98 251.32 1218.71 251.32ZM1218.71 246.2C1220.31 246.2 1221.62 245.667 1222.63 244.6C1223.67 243.507 1224.19 242.053 1224.19 240.24C1224.19 238.427 1223.67 236.987 1222.63 235.92C1221.62 234.827 1220.31 234.28 1218.71 234.28C1217.11 234.28 1215.79 234.827 1214.75 235.92C1213.71 236.987 1213.19 238.427 1213.19 240.24C1213.19 242.053 1213.71 243.507 1214.75 244.6C1215.79 245.667 1217.11 246.2 1218.71 246.2ZM1257.76 229.48V251H1251.84V248.44C1251.02 249.373 1250.03 250.093 1248.88 250.6C1247.74 251.08 1246.5 251.32 1245.16 251.32C1242.34 251.32 1240.1 250.507 1238.44 248.88C1236.79 247.253 1235.96 244.84 1235.96 241.64V229.48H1242.2V240.72C1242.2 244.187 1243.66 245.92 1246.56 245.92C1248.06 245.92 1249.26 245.44 1250.16 244.48C1251.07 243.493 1251.52 242.04 1251.52 240.12V229.48H1257.76ZM1270.9 232.32C1271.65 231.28 1272.65 230.493 1273.9 229.96C1275.18 229.427 1276.65 229.16 1278.3 229.16V234.92C1277.61 234.867 1277.14 234.84 1276.9 234.84C1275.12 234.84 1273.72 235.347 1272.7 236.36C1271.69 237.347 1271.18 238.84 1271.18 240.84V251H1264.94V229.48H1270.9V232.32ZM1087.6 312.32C1085.82 312.32 1084.07 312.107 1082.36 311.68C1080.66 311.227 1079.3 310.667 1078.28 310L1080.36 305.52C1081.32 306.133 1082.48 306.64 1083.84 307.04C1085.2 307.413 1086.54 307.6 1087.84 307.6C1090.48 307.6 1091.8 306.947 1091.8 305.64C1091.8 305.027 1091.44 304.587 1090.72 304.32C1090 304.053 1088.9 303.827 1087.4 303.64C1085.64 303.373 1084.19 303.067 1083.04 302.72C1081.9 302.373 1080.9 301.76 1080.04 300.88C1079.22 300 1078.8 298.747 1078.8 297.12C1078.8 295.76 1079.19 294.56 1079.96 293.52C1080.76 292.453 1081.91 291.627 1083.4 291.04C1084.92 290.453 1086.71 290.16 1088.76 290.16C1090.28 290.16 1091.79 290.333 1093.28 290.68C1094.8 291 1096.06 291.453 1097.04 292.04L1094.96 296.48C1093.07 295.413 1091 294.88 1088.76 294.88C1087.43 294.88 1086.43 295.067 1085.76 295.44C1085.1 295.813 1084.76 296.293 1084.76 296.88C1084.76 297.547 1085.12 298.013 1085.84 298.28C1086.56 298.547 1087.71 298.8 1089.28 299.04C1091.04 299.333 1092.48 299.653 1093.6 300C1094.72 300.32 1095.7 300.92 1096.52 301.8C1097.35 302.68 1097.76 303.907 1097.76 305.48C1097.76 306.813 1097.36 308 1096.56 309.04C1095.76 310.08 1094.59 310.893 1093.04 311.48C1091.52 312.04 1089.71 312.32 1087.6 312.32ZM1113.25 312.32C1110.99 312.32 1108.95 311.853 1107.13 310.92C1105.35 309.96 1103.95 308.64 1102.93 306.96C1101.92 305.28 1101.41 303.373 1101.41 301.24C1101.41 299.107 1101.92 297.2 1102.93 295.52C1103.95 293.84 1105.35 292.533 1107.13 291.6C1108.95 290.64 1110.99 290.16 1113.25 290.16C1115.52 290.16 1117.55 290.64 1119.33 291.6C1121.12 292.533 1122.52 293.84 1123.53 295.52C1124.55 297.2 1125.05 299.107 1125.05 301.24C1125.05 303.373 1124.55 305.28 1123.53 306.96C1122.52 308.64 1121.12 309.96 1119.33 310.92C1117.55 311.853 1115.52 312.32 1113.25 312.32ZM1113.25 307.2C1114.85 307.2 1116.16 306.667 1117.17 305.6C1118.21 304.507 1118.73 303.053 1118.73 301.24C1118.73 299.427 1118.21 297.987 1117.17 296.92C1116.16 295.827 1114.85 295.28 1113.25 295.28C1111.65 295.28 1110.33 295.827 1109.29 296.92C1108.25 297.987 1107.73 299.427 1107.73 301.24C1107.73 303.053 1108.25 304.507 1109.29 305.6C1110.33 306.667 1111.65 307.2 1113.25 307.2ZM1130.62 282.32H1136.86V312H1130.62V282.32ZM1165.74 290.48V312H1159.82V309.44C1158.99 310.373 1158 311.093 1156.86 311.6C1155.71 312.08 1154.47 312.32 1153.14 312.32C1150.31 312.32 1148.07 311.507 1146.42 309.88C1144.76 308.253 1143.94 305.84 1143.94 302.64V290.48H1150.18V301.72C1150.18 305.187 1151.63 306.92 1154.54 306.92C1156.03 306.92 1157.23 306.44 1158.14 305.48C1159.04 304.493 1159.5 303.04 1159.5 301.12V290.48H1165.74ZM1186.8 310.96C1186.18 311.413 1185.42 311.76 1184.52 312C1183.64 312.213 1182.7 312.32 1181.72 312.32C1179.16 312.32 1177.17 311.667 1175.76 310.36C1174.37 309.053 1173.68 307.133 1173.68 304.6V295.76H1170.36V290.96H1173.68V285.72H1179.92V290.96H1185.28V295.76H1179.92V304.52C1179.92 305.427 1180.14 306.133 1180.6 306.64C1181.08 307.12 1181.74 307.36 1182.6 307.36C1183.58 307.36 1184.42 307.093 1185.12 306.56L1186.8 310.96ZM1191.7 290.48H1197.94V312H1191.7V290.48ZM1194.82 287.48C1193.67 287.48 1192.74 287.147 1192.02 286.48C1191.3 285.813 1190.94 284.987 1190.94 284C1190.94 283.013 1191.3 282.187 1192.02 281.52C1192.74 280.853 1193.67 280.52 1194.82 280.52C1195.97 280.52 1196.9 280.84 1197.62 281.48C1198.34 282.12 1198.7 282.92 1198.7 283.88C1198.7 284.92 1198.34 285.787 1197.62 286.48C1196.9 287.147 1195.97 287.48 1194.82 287.48ZM1215.37 312.32C1213.1 312.32 1211.06 311.853 1209.25 310.92C1207.46 309.96 1206.06 308.64 1205.05 306.96C1204.04 305.28 1203.53 303.373 1203.53 301.24C1203.53 299.107 1204.04 297.2 1205.05 295.52C1206.06 293.84 1207.46 292.533 1209.25 291.6C1211.06 290.64 1213.1 290.16 1215.37 290.16C1217.64 290.16 1219.66 290.64 1221.45 291.6C1223.24 292.533 1224.64 293.84 1225.65 295.52C1226.66 297.2 1227.17 299.107 1227.17 301.24C1227.17 303.373 1226.66 305.28 1225.65 306.96C1224.64 308.64 1223.24 309.96 1221.45 310.92C1219.66 311.853 1217.64 312.32 1215.37 312.32ZM1215.37 307.2C1216.97 307.2 1218.28 306.667 1219.29 305.6C1220.33 304.507 1220.85 303.053 1220.85 301.24C1220.85 299.427 1220.33 297.987 1219.29 296.92C1218.28 295.827 1216.97 295.28 1215.37 295.28C1213.77 295.28 1212.45 295.827 1211.41 296.92C1210.37 297.987 1209.85 299.427 1209.85 301.24C1209.85 303.053 1210.37 304.507 1211.41 305.6C1212.45 306.667 1213.77 307.2 1215.37 307.2ZM1245.82 290.16C1248.49 290.16 1250.63 290.96 1252.26 292.56C1253.91 294.16 1254.74 296.533 1254.74 299.68V312H1248.5V300.64C1248.5 298.933 1248.13 297.667 1247.38 296.84C1246.63 295.987 1245.55 295.56 1244.14 295.56C1242.57 295.56 1241.31 296.053 1240.38 297.04C1239.45 298 1238.98 299.44 1238.98 301.36V312H1232.74V290.48H1238.7V293C1239.53 292.093 1240.55 291.4 1241.78 290.92C1243.01 290.413 1244.35 290.16 1245.82 290.16Z" fill="#FAFAFA"/>
<ellipse cx="116.54" cy="76.8174" rx="81.598" ry="76.8174" fill="#F8FDF8"/>
<path d="M150.009 83.8563C149.398 82.1499 147.825 81.0834 145.989 81.0834H143.215V32.0241C143.215 27.0294 139.155 23.0654 134.039 23.0654H84.6636C79.2323 23.0654 74.6138 27.5746 74.6138 32.8773V110.946C74.6138 116.022 79.3984 120.331 84.5544 120.331H134.46C134.987 120.331 135.451 120.751 135.412 121.264C135.371 121.804 134.908 122.037 134.367 122.037H114.485L129.669 130.569H164.625L150.009 83.8563ZM109.592 116.15C108.194 116.15 107.145 115.127 107.145 113.762C107.144 112.463 108.262 111.372 109.592 111.372C110.99 111.373 112.038 112.396 112.038 113.761C111.995 115.126 110.99 116.15 109.592 116.15ZM136.66 81.0834H128.074C125.759 81.0834 123.792 83.0885 123.792 85.3494C123.792 87.6104 125.759 89.6155 128.074 89.6155H136.726V107.533H81.6049V35.4369H136.66V81.0834ZM109.447 67.6924C105.742 67.6924 102.705 64.8384 102.517 61.2635C102.683 64.8554 105.733 67.7265 109.447 67.7265C112.821 67.7265 115.639 65.3631 116.255 62.2489C115.617 65.3588 112.803 67.6924 109.447 67.6924ZM116.386 60.952C116.386 61.1739 116.373 61.3957 116.351 61.6133C116.01 65.0389 113.043 67.7265 109.447 67.7265C105.733 67.7265 102.683 64.8554 102.517 61.2635C102.513 61.1611 102.509 61.0587 102.509 60.952C102.509 60.8368 102.513 60.7174 102.517 60.6065C102.705 57.0316 105.742 54.1818 109.447 54.1818C113.03 54.1818 115.993 56.8353 116.351 60.2567C116.373 60.487 116.386 60.7174 116.386 60.952ZM126.877 47.0277H99.9786C99.8563 47.0277 99.7296 46.9936 99.6422 46.9424V44.6601H93.1666V46.9765C93.0967 46.9936 93.0224 47.0106 92.935 47.0106H92.0131C89.5749 47.0106 87.5911 48.9432 87.5911 51.3279V69.8851C87.5911 72.2698 89.5749 74.2066 92.0131 74.2066H126.86C129.302 74.2066 131.286 72.2698 131.286 69.8851V51.3449C131.303 48.9602 129.32 47.0277 126.877 47.0277ZM109.447 70.525C107.075 70.525 104.894 69.7017 103.195 68.3323C102.954 68.136 102.718 67.927 102.5 67.7137C100.721 65.9774 99.6247 63.5842 99.6247 60.935C99.6247 59.9452 99.7776 58.9854 100.066 58.0895C100.092 58.0127 100.114 57.9359 100.145 57.8592C101.456 54.0752 105.122 51.3449 109.447 51.3449C114.861 51.3449 119.27 55.6323 119.27 60.935C119.27 66.2419 114.861 70.525 109.447 70.525ZM128.136 53.1964C128.136 53.2732 128.127 53.35 128.114 53.4268C128.101 53.4907 128.083 53.559 128.061 53.6187C128.048 53.6571 128.031 53.6913 128.013 53.7254C127.991 53.7723 127.965 53.815 127.939 53.8576C127.913 53.9003 127.878 53.9429 127.847 53.9813C127.821 54.0112 127.795 54.0411 127.764 54.0667C127.712 54.1221 127.651 54.169 127.585 54.2117C127.528 54.2501 127.471 54.28 127.41 54.3098C127.362 54.3312 127.31 54.3482 127.257 54.3653C127.192 54.3866 127.122 54.3994 127.052 54.4079C126.995 54.4165 126.938 54.4207 126.877 54.4207H122.438C122.381 54.4207 122.329 54.4165 122.272 54.4079C122.246 54.4079 122.215 54.4037 122.189 54.3951C122.023 54.3653 121.865 54.3013 121.73 54.2117C121.664 54.169 121.603 54.1221 121.551 54.0667C121.52 54.0411 121.494 54.0112 121.468 53.9813C121.411 53.9131 121.363 53.8406 121.319 53.7638C121.306 53.7382 121.293 53.7126 121.284 53.687C121.245 53.6059 121.219 53.5163 121.201 53.4268C121.197 53.3926 121.192 53.3585 121.188 53.3244C121.184 53.2817 121.179 53.239 121.179 53.1964V51.3449C121.179 51.2639 121.188 51.1871 121.201 51.1146C121.201 51.1103 121.206 51.1018 121.206 51.0975C121.214 51.0591 121.223 51.0207 121.236 50.9823C121.241 50.961 121.249 50.9397 121.258 50.9183C121.28 50.8543 121.31 50.7946 121.341 50.7392C121.345 50.7306 121.35 50.7221 121.354 50.7178C121.385 50.6624 121.424 50.6112 121.463 50.5643L121.468 50.56C121.494 50.5301 121.525 50.5003 121.551 50.4747C121.603 50.4235 121.664 50.3723 121.73 50.3296C121.795 50.287 121.87 50.2443 121.948 50.2144C121.988 50.1974 122.027 50.1846 122.066 50.176C122.119 50.159 122.167 50.1462 122.219 50.1376C122.237 50.1376 122.25 50.1334 122.263 50.1334C122.32 50.1248 122.377 50.1206 122.438 50.1206H126.877C126.951 50.1206 127.026 50.1248 127.096 50.1419C127.109 50.1419 127.122 50.1419 127.135 50.1462C127.297 50.176 127.441 50.24 127.572 50.3254C127.576 50.3254 127.581 50.3254 127.581 50.3296C127.646 50.3723 127.707 50.4192 127.76 50.4747C127.821 50.5259 127.869 50.5898 127.917 50.6538C127.974 50.7349 128.022 50.8245 128.057 50.9183C128.066 50.9397 128.074 50.961 128.079 50.9823C128.092 51.025 128.105 51.0719 128.114 51.1146C128.118 51.1487 128.123 51.1828 128.127 51.217C128.131 51.2596 128.136 51.3023 128.136 51.3449V53.1964Z" fill="#93E79B"/>
<ellipse cx="798.056" cy="76.8174" rx="81.598" ry="76.8174" fill="#F8FDF8"/>
<g clip-path="url(#clip0)">
<path d="M811.036 35.9516L801.168 24.7742C801.138 24.7416 801.099 24.7191 801.069 24.6865C800.917 24.523 800.747 24.3769 800.567 24.2428C800.544 24.2257 800.526 24.2067 800.502 24.1928C799.82 23.6987 798.98 23.396 798.058 23.396C797.135 23.396 796.295 23.7006 795.613 24.1925C795.589 24.208 795.571 24.225 795.548 24.2424C795.369 24.3785 795.198 24.5246 795.046 24.6862C795.016 24.7188 794.976 24.7413 794.947 24.7738L785.079 35.9516C783.637 37.5825 783.862 40.0187 785.579 41.3915C787.298 42.7592 789.86 42.5476 791.301 40.9132L793.997 37.8596V85.6273C793.997 87.7589 795.814 89.4879 798.057 89.4879C800.301 89.4879 802.118 87.7589 802.118 85.6273V37.8615L804.814 40.9151C805.616 41.8251 806.768 42.2948 807.926 42.2948C808.846 42.2948 809.774 41.9988 810.534 41.3934C812.254 40.0206 812.478 37.5844 811.036 35.9516Z" fill="#93E79B"/>
<path d="M826.708 116.201H769.407C765.052 116.201 761.508 112.832 761.508 108.693V54.2125C761.508 50.0732 765.052 46.7045 769.407 46.7045H784.128C786.372 46.7045 788.188 48.4335 788.188 50.5651C788.188 52.6967 786.372 54.4275 784.128 54.4275H769.63V108.48H826.484V54.4256H812.314C810.07 54.4256 808.253 52.6967 808.253 50.5632C808.253 48.4316 810.07 46.7026 812.314 46.7026H826.707C831.062 46.7026 834.606 50.0713 834.606 54.2106V108.691C834.607 112.832 831.064 116.201 826.708 116.201Z" fill="#93E79B"/>
</g>
<ellipse cx="1155.15" cy="76.8174" rx="81.598" ry="76.8174" fill="#F8FDF8"/>
<g clip-path="url(#clip1)">
<path d="M1154.39 143.497C1187.66 143.497 1214.63 113.818 1214.63 77.2074C1214.63 40.5969 1187.66 10.9182 1154.39 10.9182C1121.11 10.9182 1094.14 40.5969 1094.14 77.2074C1094.14 113.818 1121.11 143.497 1154.39 143.497Z" fill="#FDFDFD"/>
<path d="M1175.1 53.0312L1136.54 100.759L1112.44 79.5469" stroke="#93E79B" stroke-width="15" stroke-miterlimit="10" stroke-linecap="round" stroke-linejoin="round"/>
</g>
<path d="M321.475 83.4749C322.842 82.108 322.842 79.892 321.475 78.5251L299.201 56.2513C297.834 54.8844 295.618 54.8844 294.251 56.2513C292.884 57.6181 292.884 59.8342 294.251 61.201L314.05 81L294.251 100.799C292.884 102.166 292.884 104.382 294.251 105.749C295.618 107.116 297.834 107.116 299.201 105.749L321.475 83.4749ZM255 84.5L319 84.5L319 77.5L255 77.5L255 84.5Z" fill="#FFF9F9"/>
<path d="M661.475 83.4749C662.842 82.108 662.842 79.892 661.475 78.5251L639.201 56.2513C637.834 54.8844 635.618 54.8844 634.251 56.2513C632.884 57.6181 632.884 59.8342 634.251 61.201L654.05 81L634.251 100.799C632.884 102.166 632.884 104.382 634.251 105.749C635.618 107.116 637.834 107.116 639.201 105.749L661.475 83.4749ZM595 84.5L659 84.5L659 77.5L595 77.5L595 84.5Z" fill="#FFF9F9"/>
<path d="M1011.47 83.4749C1012.84 82.108 1012.84 79.892 1011.47 78.5251L989.201 56.2513C987.834 54.8844 985.618 54.8844 984.251 56.2513C982.884 57.6181 982.884 59.8342 984.251 61.201L1004.05 81L984.251 100.799C982.884 102.166 982.884 104.382 984.251 105.749C985.618 107.116 987.834 107.116 989.201 105.749L1011.47 83.4749ZM945 84.5L1009 84.5L1009 77.5L945 77.5L945 84.5Z" fill="#FFF9F9"/>
<ellipse cx="456.598" cy="76.8174" rx="81.598" ry="76.8174" fill="#F8FDF8"/>
<path d="M488.449 85.1939C488.449 85.1939 487.971 80.1098 484.294 77.3174C482.239 75.7365 480.272 75.5307 478.877 75.6524V85.2128H476.359V74.7404C475.607 73.2576 474.104 70.9657 471.714 70.1051C469.335 69.2351 466.9 69.4502 465.406 69.7122V80.5027H462.899V68.3886C461.833 67.224 459.917 65.8348 456.56 65.6524C454.747 65.5542 453.13 66.2183 451.853 66.948L451.606 77.3174H449.083L449.16 58.4914C457.296 56.1761 463.244 49.3566 463.244 41.1948C463.239 31.1432 454.269 23 443.208 23C432.142 23 423.177 31.1432 423.177 41.1993C423.177 49.0665 428.692 55.7084 436.385 58.2481V90.1987C436.385 90.1987 429.907 77.5373 424.403 75.8675C418.908 74.2024 415.489 77.2006 415.489 77.2006C415.489 77.2006 421.73 87.7057 426.308 99.3521C429.248 106.845 430.129 115.531 432.724 119.834C439.32 130.83 447.744 131.971 457.909 131.971C468.053 131.971 481.853 132.827 485.52 125.161C489.191 117.505 488.449 85.1939 488.449 85.1939ZM431.797 41.19C431.797 35.4697 436.905 30.8251 443.208 30.8251C449.505 30.8251 454.619 35.4697 454.619 41.19C454.619 44.9178 452.435 48.1497 449.197 49.9785L449.222 43.276C449.222 43.276 447.744 36.2974 442.987 36.2974C438.213 36.2974 436.39 42.2844 436.39 42.2844V49.4547C433.62 47.5697 431.797 44.5856 431.797 41.19Z" fill="#93E79B"/>
<defs>
<clipPath id="clip0">
<rect width="97.6125" height="92.8048" fill="white" transform="translate(749.25 23.396)"/>
</clipPath>
<clipPath id="clip1">
<rect width="120.49" height="132.578" fill="white" transform="translate(1094.14 10.9182)"/>
</clipPath>
</defs>
</svg>
