<svg width="62" height="45" viewBox="0 0 62 45" fill="none" xmlns="http://www.w3.org/2000/svg">
<ellipse cx="31" cy="22.5" rx="31" ry="22.5" fill="#6D9A33"/>
<g clip-path="url(#clip0)">
<path d="M37.1603 3.14771C37.1603 3.14771 40.3264 10.6057 26.7569 15.6152C19.3836 18.3365 13.7205 25.3113 20.4823 36.0858C21.0422 31.2698 23.4434 20.6511 33.7684 18.228C33.7684 18.228 24.1585 21.6879 23.3096 37.3496C28.2476 38.0171 39.8285 38.4657 43.2669 28.789C47.8072 16.0039 37.1603 3.14771 37.1603 3.14771Z" fill="#93E79B"/>
<path d="M23.3141 37.2844C33.797 33.2561 41.4246 23.8194 42.4773 12.5543C40.3342 6.98828 37.1603 3.14771 37.1603 3.14771C37.1603 3.14771 40.3264 10.6057 26.7569 15.6152C19.3836 18.3365 13.7205 25.3113 20.4823 36.0858C21.0422 31.2698 23.4434 20.6511 33.7684 18.228C33.7679 18.2281 24.1866 21.6794 23.3141 37.2844Z" fill="#93E79B"/>
<path d="M19.4361 15.8638C19.9773 15.8638 20.416 15.4413 20.416 14.9202C20.416 14.399 19.9773 13.9766 19.4361 13.9766C18.8948 13.9766 18.4561 14.399 18.4561 14.9202C18.4561 15.4413 18.8948 15.8638 19.4361 15.8638Z" fill="#93E79B"/>
<path d="M22.5154 14.6507C22.902 14.6507 23.2154 14.3489 23.2154 13.9767C23.2154 13.6045 22.902 13.3027 22.5154 13.3027C22.1288 13.3027 21.8154 13.6045 21.8154 13.9767C21.8154 14.3489 22.1288 14.6507 22.5154 14.6507Z" fill="#93E79B"/>
<path d="M21.8857 9.25875C22.8521 9.25875 23.6356 8.50439 23.6356 7.57383C23.6356 6.64328 22.8521 5.88892 21.8857 5.88892C20.9192 5.88892 20.1357 6.64328 20.1357 7.57383C20.1357 8.50439 20.9192 9.25875 21.8857 9.25875Z" fill="#93E79B"/>
<path d="M27.2758 11.9546C27.5851 11.9546 27.8358 11.7132 27.8358 11.4154C27.8358 11.1176 27.5851 10.8762 27.2758 10.8762C26.9665 10.8762 26.7158 11.1176 26.7158 11.4154C26.7158 11.7132 26.9665 11.9546 27.2758 11.9546Z" fill="#93E79B"/>
<path d="M31.9654 9.93279C32.8546 9.93279 33.5753 9.23877 33.5753 8.38266C33.5753 7.52654 32.8546 6.83252 31.9654 6.83252C31.0763 6.83252 30.3555 7.52654 30.3555 8.38266C30.3555 9.23877 31.0763 9.93279 31.9654 9.93279Z" fill="#93E79B"/>
</g>
<defs>
<clipPath id="clip0">
<rect width="35.839" height="34.5078" fill="white" transform="translate(13.0049 3.14771)"/>
</clipPath>
</defs>
</svg>
